<svg width="12" height="20" viewBox="0 0 12 20" fill="none" xmlns="http://www.w3.org/2000/svg">
<path fill-rule="evenodd" clip-rule="evenodd" d="M10.7826 0.225964C10.8559 0.297411 10.914 0.382286 10.9536 0.475729C10.9933 0.569172 11.0137 0.669347 11.0137 0.770516C11.0137 0.871684 10.9933 0.971859 10.9536 1.0653C10.914 1.15875 10.8559 1.24362 10.7826 1.31507L1.90027 10.0002L10.7826 18.6853C10.8557 18.7568 10.9137 18.8417 10.9533 18.9352C10.9929 19.0286 11.0133 19.1288 11.0133 19.2299C11.0133 19.331 10.9929 19.4312 10.9533 19.5246C10.9137 19.618 10.8557 19.7029 10.7826 19.7744C10.7095 19.846 10.6227 19.9027 10.5271 19.9414C10.4316 19.9801 10.3292 20 10.2258 20C10.1224 20 10.02 19.9801 9.92445 19.9414C9.82891 19.9027 9.7421 19.846 9.66898 19.7744L0.23139 10.5448C0.15815 10.4733 0.100042 10.3884 0.0603938 10.295C0.0207457 10.2015 0.000337114 10.1014 0.000337119 10.0002C0.000337124 9.89903 0.0207458 9.79886 0.0603938 9.70542C0.100042 9.61197 0.15815 9.5271 0.23139 9.45565L9.66898 0.225964C9.74204 0.154337 9.82883 0.0975081 9.92437 0.0587335C10.0199 0.0199589 10.1224 -3.5376e-08 10.2258 -3.12702e-08C10.3292 -2.71645e-08 10.4317 0.019959 10.5272 0.0587336C10.6228 0.0975082 10.7096 0.154337 10.7826 0.225964Z" fill="black"/>
</svg>
