<svg width="27" height="27" viewBox="0 0 27 27" fill="none" xmlns="http://www.w3.org/2000/svg">
<path fill-rule="evenodd" clip-rule="evenodd" d="M22.5347 11.2674C22.5347 5.04457 17.4901 0 11.2674 0C5.04457 0 0 5.04457 0 11.2674C0 17.4901 5.04457 22.5347 11.2674 22.5347C14.067 22.5347 16.6281 21.5136 18.5987 19.8236L25.5204 26.7461L25.6176 26.8301C25.9569 27.0818 26.4384 27.0539 26.7461 26.7461C27.0846 26.4077 27.0846 25.8589 26.7461 25.5204L19.8236 18.5987C21.5136 16.6281 22.5347 14.067 22.5347 11.2674ZM1.7327 11.267C1.7327 6.00156 6.00118 1.73308 11.2666 1.73308C16.5321 1.73308 20.8005 6.00156 20.8005 11.267C20.8005 16.5324 16.5321 20.8009 11.2666 20.8009C6.00118 20.8009 1.7327 16.5324 1.7327 11.267Z" fill="#150101"/>
</svg>
